{"title":"Spin Doctors (1994) - Turn It Upside Down [PRM-BR] FLAC","uid":8168176,"size":386646248,"categoryP":"audio","categoryS":"flac","magnet":"?xt=urn:btih:78a74bef580ada8494bce1d24b2fe6703a4b4031&amp;dn=Spin+Doctors+%281994%29+-+Turn+It+Upside+Down+%5BPRM-BR%5D+FLAC&amp;tr=udp%3A%2F%2Ftracker.openbittorrent.com%3A80&amp;tr=udp%3A%2F%2Fopen.demonii.com%3A1337&amp;tr=udp%3A%2F%2Ftracker.coppersurfer.tk%3A6969&amp;tr=udp%3A%2F%2Fexodus.desync.com%3A6969","seeders":1,"leechers":0,"uploader":"PRM-BR","files":-1,"time":1361369898,"description":"Exact Audio Copy V1.0 beta 3 from 29. August 2011\n\nEAC extraction logfile from 20. February 2013, 10:13\n\nSpin Doctors / Turn It Upside Down\n\nUsed drive  : HL-DT-STDVDRAM GP08LU10   Adapter: 1  ID: 0\n\nRead mode               : Secure\nUtilize accurate stream : Yes\nDefeat audio cache      : Yes\nMake use of C2 pointers : No\n\nRead offset correction                      : 667\nOverread into Lead-In and Lead-Out          : No\nFill up missing offset samples with silence : Yes\nDelete leading and trailing silent blocks   : No\nNull samples used in CRC calculations       : Yes\nUsed interface                              : Native Win32 interface for Win NT &amp; 2000\nGap handling                                : Not detected, thus appended to previous track\n\nUsed output format              : User Defined Encoder\nSelected bitrate                : 1024 kBit/s\nQuality                         : High\nAdd ID3 tag                     : No\nCommand line compressor         : D:Program FilesExact Audio CopyFLACFLAC.EXE\nAdditional command line options : -6 -V -T &quot;ARTIST=%artist%&quot; -T &quot;TITLE=%title%&quot; -T &quot;ALBUM=%albumtitle%&quot; -T &quot;DATE=%year%&quot; -T &quot;TRACKNUMBER=%tracknr%&quot; -T &quot;GENRE=%genre%&quot; -T &quot;COMMENT=%comment%&quot; -T &quot;BAND=%albuminterpret%&quot; -T &quot;ALBUMARTIST=%albuminterpret%&quot; -T &quot;COMPOSER=%composer%&quot; %haslyrics%--tag-from-file=LYRICS=&quot;%lyricsfile%&quot;%haslyrics% -T &quot;DISCNUMBER=%cdnumber%&quot; -T &quot;TOTALDISCS=%totalcds%&quot; -T &quot;TOTALTRACKS=%numtracks%&quot; %hascover%--picture=&quot;%coverfile%&quot;%hascover% %source% -o %dest%\n\n\nTOC of the extracted CD\n\n     Track |   Start  |  Length  | Start sector | End sector \n    ---------------------------------------------------------\n        1  |  0:00.00 |  4:14.72 |         0    |    19121   \n        2  |  4:14.72 |  3:49.03 |     19122    |    36299   \n        3  |  8:04.00 |  4:04.25 |     36300    |    54624   \n        4  | 12:08.25 |  5:11.32 |     54625    |    77981   \n        5  | 17:19.57 |  4:18.70 |     77982    |    97401   \n        6  | 21:38.52 |  4:23.58 |     97402    |   117184   \n        7  | 26:02.35 |  4:47.40 |    117185    |   138749   \n        8  | 30:50.00 |  3:41.40 |    138750    |   155364   \n        9  | 34:31.40 |  3:55.00 |    155365    |   172989   \n       10  | 38:26.40 |  3:39.05 |    172990    |   189419   \n       11  | 42:05.45 |  3:53.37 |    189420    |   206931   \n       12  | 45:59.07 |  4:41.55 |    206932    |   228061   \n       13  | 50:40.62 |  4:34.70 |    228062    |   248681   \n\n\nTrack  1\n\n     Filename D:DesktopEAC(01) Spin Doctors - Big Fat Funky Booty.wav\n\n     Peak level 97.5 %\n     Extraction speed 2.3 X\n     Track quality 99.9 %\n     Copy CRC 7015AF3A\n     Cannot be verified as accurate (confidence 48)  [B4B6AC40], AccurateRip returned [8266911E]  (AR v2)\n     Copy OK\n\nTrack  2\n\n     Filename D:DesktopEAC(02) Spin Doctors - You Let Your Heart Go Too Fast.wav\n\n     Peak level 97.5 %\n     Extraction speed 2.6 X\n     Track quality 99.9 %\n     Copy CRC 693B1F7B\n     Cannot be verified as accurate (confidence 48)  [B7D48C62], AccurateRip returned [950D4619]  (AR v2)\n     Copy OK\n\nTrack  3\n\n     Filename D:DesktopEAC(03) Spin Doctors - Cleopatra's Cat.wav\n\n     Peak level 97.5 %\n     Extraction speed 2.9 X\n     Track quality 99.9 %\n     Copy CRC 93B43C4D\n     Cannot be verified as accurate (confidence 48)  [7B892DD2], AccurateRip returned [7772CA38]  (AR v2)\n     Copy OK\n\nTrack  4\n\n     Filename D:DesktopEAC(04) Spin Doctors - Hungry Hamed's.wav\n\n     Peak level 97.5 %\n     Extraction speed 3.3 X\n     Track quality 99.9 %\n     Copy CRC 29E55F75\n     Cannot be verified as accurate (confidence 48)  [364D00B2], AccurateRip returned [54C34DC7]  (AR v2)\n     Copy OK\n\nTrack  5\n\n     Filename D:DesktopEAC(05) Spin Doctors - Biscuit Head.wav\n\n     Peak level 97.5 %\n     Extraction speed 3.4 X\n     Track quality 99.9 %\n     Copy CRC 607EABE1\n     Cannot be verified as accurate (confidence 48)  [0D8E464F], AccurateRip returned [A495D925]  (AR v2)\n     Copy OK\n\nTrack  6\n\n     Filename D:DesktopEAC(06) Spin Doctors - Indifference.wav\n\n     Peak level 97.5 %\n     Extraction speed 4.3 X\n     Track quality 100.0 %\n     Copy CRC 1AD6E263\n     Cannot be verified as accurate (confidence 48)  [AC7A01F1], AccurateRip returned [26F53A83]  (AR v2)\n     Copy OK\n\nTrack  7\n\n     Filename D:DesktopEAC(07) Spin Doctors - Bags Of Dirt.wav\n\n     Peak level 97.5 %\n     Extraction speed 4.6 X\n     Track quality 100.0 %\n     Copy CRC CB6F728F\n     Cannot be verified as accurate (confidence 47)  [1336F42E], AccurateRip returned [13817580]  (AR v2)\n     Copy OK\n\nTrack  8\n\n     Filename D:DesktopEAC(08) Spin Doctors - Mary Jane.wav\n\n     Peak level 97.5 %\n     Extraction speed 4.7 X\n     Track quality 100.0 %\n     Copy CRC CEA454B2\n     Cannot be verified as accurate (confidence 48)  [2A8DFF52], AccurateRip returned [FB447C5B]  (AR v2)\n     Copy OK\n\nTrack  9\n\n     Filename D:DesktopEAC(09) Spin Doctors - More Than Meets The Ear.wav\n\n     Peak level 97.5 %\n     Extraction speed 4.8 X\n     Track quality 100.0 %\n     Copy CRC A870963A\n     Cannot be verified as accurate (confidence 48)  [5277A830], AccurateRip returned [41A74D00]  (AR v2)\n     Copy OK\n\nTrack 10\n\n     Filename D:DesktopEAC(10) Spin Doctors - Laraby's Gang.wav\n\n     Peak level 97.5 %\n     Extraction speed 4.9 X\n     Track quality 100.0 %\n     Copy CRC F52C6068\n     Cannot be verified as accurate (confidence 47)  [44484C10], AccurateRip returned [D9E87DB0]  (AR v2)\n     Copy OK\n\nTrack 11\n\n     Filename D:DesktopEAC(11) Spin Doctors - At This Hour.wav\n\n     Peak level 97.5 %\n     Extraction speed 5.2 X\n     Track quality 100.0 %\n     Copy CRC 2627FF29\n     Cannot be verified as accurate (confidence 48)  [6E15C4BB], AccurateRip returned [867FC501]  (AR v2)\n     Copy OK\n\nTrack 12\n\n     Filename D:DesktopEAC(12) Spin Doctors - Someday All This Will Be Road.wav\n\n     Peak level 97.5 %\n     Extraction speed 5.4 X\n     Track quality 100.0 %\n     Copy CRC 683FE0B7\n     Cannot be verified as accurate (confidence 48)  [053CEBAE], AccurateRip returned [525F655E]  (AR v2)\n     Copy OK\n\nTrack 13\n\n     Filename D:DesktopEAC(13) Spin Doctors - Beasts In The Woods.wav\n\n     Peak level 97.5 %\n     Extraction speed 4.8 X\n     Track quality 99.9 %\n     Copy CRC F0246425\n     Cannot be verified as accurate (confidence 48)  [B5FFFBF6], AccurateRip returned [23EBE6FA]  (AR v2)\n     Copy OK\n\n\nNo tracks could be verified as accurate\nYou may have a different pressing from the one(s) in the database\n\nNo errors occurred\n\nEnd of status report\n\n---- CUETools DB Plugin V2.1.3\n\n[CTDB TOCID: CpfeLsylu4Y2mHX87SNr8z1PmbQ-] found, Submit result: CpfeLsylu4Y2mHX87SNr8z1PmbQ- has been submitted\n[c954dd38] (90/90) Differs in 7208 samples @55:15:39-55:15:46\nYou can use CUETools to repair this rip.\n","torrent":{"xt":"urn:btih:78a74bef580ada8494bce1d24b2fe6703a4b4031","amp;dn":"Spin+Doctors+%281994%29+-+Turn+It+Upside+Down+%5BPRM-BR%5D+FLAC","amp;tr":["udp%3A%2F%2Ftracker.openbittorrent.com%3A80","udp%3A%2F%2Fopen.demonii.com%3A1337","udp%3A%2F%2Ftracker.coppersurfer.tk%3A6969","udp%3A%2F%2Fexodus.desync.com%3A6969"],"infoHash":"78a74bef580ada8494bce1d24b2fe6703a4b4031","infoHashBuffer":{"type":"Buffer","data":[120,167,75,239,88,10,218,132,148,188,225,210,75,47,230,112,58,75,64,49]},"announce":[],"urlList":[]}}